<svg width="150" height="150" viewBox="0 0 150 150" xmlns="http://www.w3.org/2000/svg" xmlns:xlink="http://www.w3.org/1999/xlink"><title>BOS</title><defs><path id="a" d="M99.87 55.196v55.177H0V.018h99.87z"/></defs><g fill="none" fill-rule="evenodd"><g transform="translate(25 20.182)"><mask id="b" fill="#fff"><use xlink:href="#a"/></mask><path d="M99.87 52.071c0-13.329-5.194-25.862-14.626-35.293-7.952-7.949-17.98-12.856-29.046-14.23a7.993 7.993 0 0 0-.498-.349c-4.885-3.143-9.167-1.034-11.463.103l-.5.243a49.688 49.688 0 0 0-10.058 2.333 17.4 17.4 0 0 0-.495-.517A14.725 14.725 0 0 0 22.695.018C14.516.018 7.861 6.67 7.861 14.846c0 2.673.689 5.217 2.011 7.467C3.494 30.884 0 41.372 0 52.071 0 65.404 5.195 77.94 14.627 87.367a49.798 49.798 0 0 0 13.985 9.863c.003.912.091 1.758.263 2.516a4.593 4.593 0 0 0-.517 1.139c-1.229 2.25-.078 4.736 3.562 7.504 2.216 1.694 3.939 1.985 5.364 1.985.384 0 .75-.022 1.095-.042l.517-.027c2.5-.103 4.542-1.806 6.085-3.603l2.412-.362a14.902 14.902 0 0 0 3.798-1.06c2.423-1.02 3.41-2.402 3.787-3.546a49.106 49.106 0 0 0 16.607-4.656c.147.804.299 1.927.424 3.375.168 1.977.511 3.332 1.39 6.16.748 2.406 2 3.512 3.752 3.299.802-.1 2.685-.688 2.865-4.17.047-.942.172-3.45.064-5.358-.152-2.596-.036-4.374.094-4.805.26-.827.49-2.278-.332-3.528a50.416 50.416 0 0 0 5.402-4.684c9.432-9.43 14.627-21.963 14.627-35.296" fill="#FEFEFE" mask="url(#b)"/></g><path d="M122.105 72.254c0-12.594-4.907-24.433-13.817-33.338-7.695-7.692-17.578-12.395-28.246-13.534a5.202 5.202 0 0 0-.839-.675c-3.778-2.428-6.931-.625-9.114.437-.157.075-.343.166-.547.27a46.744 46.744 0 0 0-11.792 2.937c-.44-.658-.949-1.28-1.521-1.855a11.991 11.991 0 0 0-8.534-3.53c-6.655 0-12.068 5.41-12.068 12.062 0 2.787.94 5.428 2.672 7.565-6.583 8.106-10.533 18.43-10.533 29.661 0 12.594 4.907 24.436 13.816 33.339a47.149 47.149 0 0 0 14.901 10.077c-.307 2.491.1 4.184.553 4.875-.691.583-.984.948-1.092 1.603-1.096 1.496 1.568 3.39 2.66 4.228 2.247 1.72 3.428 1.421 5.176 1.35 2.16-.092 4.193-2.625 5.36-4.264 2.332-.33 2.772.036 2.844.326.73-.108 1.751-.29 3.134-.874 3.153-1.327 2.26-2.95 1.933-3.243a1.084 1.084 0 0 1-.22-.307c7.479-.296 14.645-2.322 21.04-5.889.227.252.462.54.692.877.692 1.02 1.057 4.335 1.2 6.046.147 1.714.44 2.881 1.278 5.577.836 2.698 1.165.73 1.204 0 .036-.727.182-3.351.072-5.248-.111-1.894-.147-4.628.218-5.792.365-1.167-.29-1.46-.473-1.676-.185-.22 0-.293-.476-1.786a2.547 2.547 0 0 1-.063-.26 47.856 47.856 0 0 0 6.765-5.62c8.91-8.903 13.817-20.745 13.817-33.339" fill="#FEFEFE"/><path d="M122.105 72.254c0-12.594-4.907-24.433-13.817-33.338-7.695-7.692-17.578-12.395-28.246-13.534a5.202 5.202 0 0 0-.839-.675c-3.778-2.428-6.931-.625-9.114.437-.157.075-.343.166-.547.27a46.744 46.744 0 0 0-11.792 2.937c-.44-.658-.949-1.28-1.521-1.855a11.991 11.991 0 0 0-8.534-3.53c-6.655 0-12.068 5.41-12.068 12.062 0 2.787.94 5.428 2.672 7.565-6.583 8.106-10.533 18.43-10.533 29.661 0 12.594 4.907 24.436 13.816 33.339a47.149 47.149 0 0 0 14.901 10.077c-.307 2.491.1 4.184.553 4.875-.691.583-.984.948-1.092 1.603-1.096 1.496 1.568 3.39 2.66 4.228 2.247 1.72 3.428 1.421 5.176 1.35 2.16-.092 4.193-2.625 5.36-4.264 2.332-.33 2.772.036 2.844.326.73-.108 1.751-.29 3.134-.874 3.153-1.327 2.26-2.95 1.933-3.243a1.084 1.084 0 0 1-.22-.307c7.479-.296 14.645-2.322 21.04-5.889.227.252.462.54.692.877.692 1.02 1.057 4.335 1.2 6.046.147 1.714.44 2.881 1.278 5.577.836 2.698 1.165.73 1.204 0 .036-.727.182-3.351.072-5.248-.111-1.894-.147-4.628.218-5.792.365-1.167-.29-1.46-.473-1.676-.185-.22 0-.293-.476-1.786a2.547 2.547 0 0 1-.063-.26 47.856 47.856 0 0 0 6.765-5.62c8.91-8.903 13.817-20.745 13.817-33.339" fill="#2D2925"/><path d="M63.78 116.246c1.751-.072 4.194-.62 5.306-1.095.146.039.382.185.75.329.143-1.167-.604-3.589-1.024-4.7-.277-.739-.548-1.239-.874-2.005-.985-.182-2.207-.71-3.081-1.073 0 .692.127 2.494.273 3.697-.365.036-.876.075-1.496.075.075 1.31.221 3.677.147 4.772m32.994-3.863c-.329-.329.401-1.349.73-3.243.327-1.894.363-5.068-1.023-6.851-.675-.868-1.001-1.419-1.115-1.808a34.473 34.473 0 0 1-14.524 6.118c-.064.11-.125.208-.183.282-.766.984-2.26 2.406-3.355 2.986-1.092.584-2.368 1.023-3.062 1.242-.144 1.164-.335 3.765-.036 4.664.11.326 1.458 1.128 1.934 2.004.05.092.09.18.135.269a45.502 45.502 0 0 0 20.59-5.577 1.423 1.423 0 0 1-.09-.086m10.566-72.523c-7.186-7.182-16.341-11.683-26.25-13.008.797 1.57.919 3.376.99 4.524 1.423-.62 2.515-.949 3.099-1.894.584-.949 1.386-.766 1.897-.075.51.691.51 1.568-.838 2.405-1.35.838-2.334 1.239-2.627 1.386-.29.143-.036.4.293.948.326.545 1.161 1.897 1.31 4.736.004.028.004.055.006.083 5.358 1.648 10.27 4.59 14.348 8.665 6.583 6.58 10.21 15.328 10.21 24.632a34.71 34.71 0 0 1-3.464 15.174c.302.157.708 1.213.85 2.61.071.727.035 1.528-.183 2.04-.219.509-1.94 3.091-2.808 3.862-.329.294-1.095.258-1.421-.218-.327-.473-.366-.218-.62.036-.257.254-1.131 1.529-1.347 1.858-.221.329-.952.655-.476 1.969.476 1.313 1.02 2.294.838 3.024-.182.73-.254.949.728 1.786.987.838.951 1.858.511 2.514-.273.412-.705 1.506-.87 2.637 11.641-8.316 19.248-21.936 19.248-37.3 0-12.237-4.766-23.742-13.424-32.393m-52.639 66.217c-.127-1.233-.315-3.464.548-5.057a35.24 35.24 0 0 1-4.965-4.128c-6.584-6.58-10.207-15.325-10.207-24.632 0-9.962 4.207-18.961 10.937-25.315a1.97 1.97 0 0 1 .243-.39 12.06 12.06 0 0 1-3.565.534c-3.209 0-6.23-1.247-8.506-3.508-6.533 8.106-10.085 18.115-10.085 28.67 0 12.238 4.769 23.743 13.424 32.397a45.79 45.79 0 0 0 14.184 9.663c.202-.976.503-2.043.946-3.205.401-1.056-.218-3.497-1.242-4.775-.545-.143-1.236-.218-1.712-.254M66.856 27.15a45.65 45.65 0 0 0-8.434 2.345 12.015 12.015 0 0 1 1.342 5.532 11.96 11.96 0 0 1-2.324 7.117 34.677 34.677 0 0 1 8.116-3.434c.185-.183.37-.36.559-.52-1.057-1.75-2.481-4.556-1.24-8.347.35-1.067 1.118-1.966 1.981-2.693" fill="#007940"/><path d="M85.182 40.959c1.02.511 2.16 1.62 1.712 3.68-.183.838-.882 1.645-.946 1.968-.108.548-1.259 1.477-1.624 2.204-.362.724-.417 1.338-.312 1.65l.002.006c.584.55 1.895 1.277 2.625 1.532.57.202.532.354.29.73.402.036.61.284.988.73.399.472 1.458.182 2.114-.147.655-.326 1.493-.437 2.152.365.655.802 1.64 2.295 2.113 3.68.476 1.385.985 2.516 1.131 2.734.144.219-.512 4.228-.694 5.832-.183 1.6-.327 2.294-.365 2.549-.036.254 1.02-.91 1.06.473.027 1.105.544 4.647 1.139 7.271.152.666.307 1.275.462 1.767.44.072.802.948 1.06 2.295.254 1.349.801 2.187.837 2.845.036.655.219.763.437.873.219.108.147.437-.509 1.2.144.11.363.332.51.476.182-.183.69-.763.69-.763s2.006.799 2.446.945c.437.144.957-.934 2.26-.365.354.155.75.65 1.029 1.134a33.776 33.776 0 0 0 3.186-14.36c0-9.091-3.543-17.638-9.971-24.066a33.91 33.91 0 0 0-13.784-8.391c-.013.5-.038.976-.038 1.153M95.717 98.28c-.51-.254-.841.114-1.093-1.893-.075-.584-.545-1.35-.91-1.712-.365-.367-.41-1.048-.221-1.642.29-.912.368-1.747.329-2.477-.039-.73.108-1.64 1.129-2.08-.363-.398-.545-.91-.656-1.31-1.494-.492-1.792-.534-2.097-1.258-.509-1.214-.821-2.986-.973-3.951a10.54 10.54 0 0 1-.136-1.313c-.481-.904-1.543-2.917-2.365-4.427a58.706 58.706 0 0 0-.772-1.404c-.73-1.275 0-2.953.366-3.938.365-.981.655-1.857.326-2.842-.326-.981-.326-1.202-.401-1.6-.072-.404-.401-.913-.835.472-.44 1.385-1.278 3.426-1.751 5.54-.271 1.198-.457 2.506-.396 3.772.047.962.24 1.9.65 2.748.946 1.969 2.077 3.791 1.93 4.886-.143 1.092-.384 1.13-.4 1.31-.183 2.116-1.093 6.16-1.566 7.324-.476 1.167-2.334 5.395-2.735 7.18-.307 1.37-1.151 4.297-1.87 6.034a33.937 33.937 0 0 0 14.663-6.67c.124-.306.102-.59-.216-.748M55.2 50.461a4.75 4.75 0 0 0 1.618 1.358c1.787.91 2.152 1.567 2.152 3.132 0 1.568.29 4.775.802 5.323.327-.33.692-.802.764-.949.511.949 1.54 2.702 3.172 3.791.111.072.061.476.327.545.547.146 4.085.694 4.193 1.424.73-.73 1.898-2.552 2.116-3.172.219-.62 1.494-2.588 2.443-3.68 0-.44 0-.694.035-.802-.254.219-.655.764-1.239 1.02-.583.255-2.625 1.129-4.082 1.859-.512.254-1.422.547-1.787-2.115-.365-2.66 0-4.045.254-4.665.255-.62.73-1.164 1.643-.91.91.255 2.368.802 2.769.802.072-.293.33-.837-.656-.948-.702-.077-2.528-.597-3.562-2.013-.418-.567-.708-1.283-.741-2.178-2.078.329-6.855.948-7.911 1.202-1.057.257-1.953.473-2.296-1.93-.147-1.02-.401-2.44.329-1.932.584-.437 1.391-.951 2.805-.727.26.038.583.257.686.459.077.354-.075.931-.246 1.47-.316.976-.93 1.676 1.056 1.223 2.08-.479 4.722-.877 5.413-1.02.092-.711.675-1.806 1.367-2.608.697-.804.802-1.457.84-1.711.037-.255-.204-.313-.547 0-.401.362-1.604 1.092-2.736.801-.437-.113-.982-.948-1.275-1.42.24-.501.844-1.367 1.588-2.237a33.726 33.726 0 0 0-10.746 5.761c-.02.404.033 1.344.299 2.378.18.694.511 1.634 1.153 2.47m2.53 49.786c1.494-.583 2.672-.556 3.828.984.327.437.584 1.715 3.391.584-1.496-1.786-2.392-3.901-3.208-6.74-1.292-4.488-4.213-9.587-3.137-11.917-.62-.587-1.347-2.845-2.113-2.588-.515.171-1.24.182-.658-1.532.262-.769.697-1.703 1.513-2.823 1-1.366 2.578-3.01 5.122-4.974.219-.182.258-.326.111-.475-.257-.255-.512-.545-.766-.692-.255-.146-.512-.072-.73.147-.219.218-.584.473-.803.62-.218.143-1.966-1.568-2.88-2.807-.91-1.239-1.858-1.64-2.148-1.786.362-.401 1.186-1.27.874-1.164-.548.18-1.505.301-2.479-.73-1.203-1.275-.73-1.933-.984-2.115-.258-.183-1.569.11-2.553-1.421-.985-1.53-1.378-2.196-.584-3.28.401-.547.548-.801.44-1.492-.11-.694 0-1.131.91-2.005.913-.876 1.458-1.678 1.859-1.604.318.058-.603-1.1-1.162-1.976a4.553 4.553 0 0 1-.332-.611c-.144-.354-.373-.96-.426-1.612-6.406 6.422-9.936 14.952-9.936 24.023 0 9.088 3.544 17.634 9.975 24.063a34.214 34.214 0 0 0 4.854 4.036c.75-.81 1.638-.497 2.022-.113" fill="#FEFEFE"/><path d="M38.357 28.377c2.99.766 5.228 3.18 6.212 4.529.252.343.51.29.62.036.232-.542.655-2.295.655-3.644 0-3.06.42-4.272 1.187-5.693a11.43 11.43 0 0 0-8.674 4.772m-1.805 9.377c5.615.509 7.36-2.624 7.725-3.1.362-.472-.072-.765-.254-1.02-.971-1.357-3.145-3.76-6.135-4.526a11.361 11.361 0 0 0-1.663 5.917c0 .94.11 1.855.327 2.729" fill="#9A3820"/><path d="M58.827 37.535c-2.37-.984-5.18-.075-7.186 1.675-2.005 1.748-3.026 3.091-3.717 7.247-.086.003-.172.003-.258.003a11.386 11.386 0 0 1-7.7-2.986c3.427-.877 6.317-2.442 9.56-5.502 3.246-3.061 4.85-6.633 5.288-8.309.437-1.678-.183-.694-.512.072-.506 1.184-2.188 4.374-5.504 7.47-3.317 3.097-5.867 4.626-9.33 5.793a11.424 11.424 0 0 1-2.603-4.225c1.167.072 4.843-.35 6.683-1.858 2.417-1.982 2.697-4.338 3.026-7.691.326-3.351.821-4.35 1.62-5.624 6.075.276 10.913 5.284 10.913 11.424 0 .863-.097 1.703-.28 2.51" fill="#9A3820"/><path d="M58.51 38.681c-.547-.766-2.497-1.133-5.592.802-.293.182-.492.31-.147.655.656.658 1.643 1.897 2.335 3.575a11.46 11.46 0 0 0 3.405-5.032m-4.319 5.739c-.656-1.604-1.203-2.768-1.82-3.57-.335-.434-.401-.62-1.023-.072-1.724 1.518-2.388 3.824-2.753 5.643a11.388 11.388 0 0 0 5.596-2.001" fill="#9A3820"/><path d="M51.058 57.212c-.473-.147-.838.4-1.056.837-.222.437-.476.913.218 1.897.692.984 1.123 1.568 2.332 1.493.584-.036 1.095-.475 1.275-.73.183-.254.221.183-.072.62-.29.436-.509 1.457.036 2.15.548.692 1.68 1.275 3.173.401 1.494-.873 2.116-1.932 2.37-2.405.255-.473.255-.691 0-.984-.254-.29-1.095-1.679-1.278-4.41-.107-1.64.183-2.696-.838-3.28-1.02-.583-3.355-1.962-3.645-4.664-.108-1.02-.036-2.587-1.057-1.75-1.02.84-1.02 1.424-1.131 2.04-.108.623.404 1.46.84 2.041.438.584.947 1.86 1.348 2.187.4.33.655.584.984.622.33.036 1.64.036 1.97.144.326.11.512.512-.293.512-.803 0-2.042.218-2.587.29-.547.074-1.056.11-1.313 1.203-.255 1.092-.62 2.369-.656 2.77-.036.4-.255.62-.255.838 0 .218.438 1.274 1.422.218a7.368 7.368 0 0 0 1.566-2.624c.182-.511.4-.437.218.365-.18.802-.235 2.807.147 3.498.412.743 1.245 1.512 2.299.984.218-.11.58-.293.874-.257.29.039-.056.547-.31.769-.255.218-1.093 1.144-2.57-.183-.365-.329-.871-1.059-.985-1.969-.036-.293-.437-.4-.62-.146-.182.257-1.166 1.167-1.858.511-.694-.658-.982-1.02-.584-2.405.072-.257.213-.528.036-.583" fill="#E89E6C"/><path d="M51.788 55.17c-.158.47-.294 1.093-.366 1.314-.072.218-.4.691-.691.072-.29-.62-.277-1.109.182-1.568.144-.144.363-.437.51-.29.146.146.4.365.365.473m1.64-1.676c-.302.149-.94.149-1.167.655-.147.329-.728-.036-.438-.437.29-.4.512-.365.695-.473.18-.11.254-.437.62-.257.362.183.436.44.29.512m24.025-18.039c-1.02.108-1.97.73-2.916 1.385-.948.656-4.375 3.534-5.178 4.117.838.437 1.057 1.314.767 2.77-.067.324 0 .437.218.219.219-.218 1.24-1.31 1.203-2.187-.036-.874-.437-1.385-.511-1.493-.072-.11.293-.547.694.365.401.91.29 2.187-.913 3.605-1.2 1.421-2.152 1.386-2.66 1.643-.51.254-1.022.655-.546 1.418.473.769 1.383.476 1.748.221.365-.257.874-.547 2.042-.44 1.167.111 1.554-.63.766-1.42-.255-.255-.913-.838-.11-.838.475 0 1.056 1.059 1.385 1.349.33.29 1.057.4 2.041.473.985.072 2.518.437 2.518 1.385 0 .583-.316.752-.73.293-.164-.182-.399.105-.584.29-.62.62-2.205 2.295-3.336 2.588-1.129.29-1.55-.039-3.043-.838-1.496-.801-2.882-1.603-3.28-1.86-.404-.255-1.242-.838-.841.329.4 1.166 1.386 2.37 3.355 3.024 1.97.656 2.26.874 2.697 1.095.437.219.182.437-.401.363-.506-.061-1.057-.51-.62.475.437.984 1.096 2.04 3.1 1.786 2.004-.257 2.062-.68 3.317-2.77.219-.365.437-.11.29.838.986-.473 1.533-.62 2.114-.766.586-.147 2.102-.661 3.1-2.514.513-.948.786-1.274.692-2.258-.033-.368.512-1.095 1.06-1.607.545-.509 2.041-2.441 1.275-3.824-.766-1.385-2.041-.694-2.661.327-.62 1.023-1.314 2.15-1.35 3.9-.437-.146-.882.015-1.092.363-.111.183-1.715-.036-2.263.11-.545.147-.728-.182-.144-.948s2.636-3.536 2.514-5.612c-.036-.62.047-.733.147-1.2.127-.603.183-.611-.564-1.023-.487-.266-.518-1.023-.603-1.604-.092-.616-.21-.62-.91-.473-.52.11-1.386-.4-1.787-1.056" fill="#E89E6C"/><path d="M73.187 46.862c-.199.456-.752.893-2.024.747-.637-.072-1.262-.08-1.367.42-.072.346-.362.326-.763.31-.42-.02-.877-.127-.896.019-.017.144 1.79 1.22 2.39 1.493.6.274 1.476.924 2.187.854.946-.088 1.773-.558 3.17-2.04.578-.608 1.04-.929.493-1.183-.371-.172-.747-.219-1.24-.219-.492 0-1.549-.074-1.95-.4m-6.799.017c-.493-.019-.548-.384-.219-.928.327-.548.64-1.056 1.076-1.385.072.237.219.528.437.655-.29.31-.677.697-.603 1.465l-.691.194z" fill="#E89E6C"/><path d="M77.486 44.617c-.625 0-1.557-.204-2.221-.658-.675-.459-.9-.683-.78-1.36.072-.423.11-.65.135-.805.02-.113.03-.188.047-.27.056-.321.04-.531-.058-.645a.26.26 0 0 0-.207-.094c-.138 0-.324.089-.562.271a15.19 15.19 0 0 1-1.018-.851 5.993 5.993 0 0 0-.456-.382c-.075-.05-.169-.13-.177-.23-.008-.074.033-.157.119-.243.053-.052.119-.063.213-.063h.086c.063 0 .188 0 .268-.092.077-.09.097-.24.06-.492 0-.014.029-.038.194-.038.045 0 .089 0 .133.002.05 0 .094.003.136.003a.44.44 0 0 0 .196-.03c.083-.042.103-.122.12-.18.018-.08.027-.11.154-.11.07 0 .163.013.28.04a.247.247 0 0 0 .06.01c.12 0 .177-.095.219-.161l.022-.036c.047-.07.091-.108.194-.108.022 0 .05 0 .077.005.1.017.188.04.266.059.105.024.196.047.276.047.216 0 .282-.16.315-.285.064-.244.114-.321.216-.321.086 0 .219.055.387.16.15.094.277.139.388.139.166 0 .285-.105.323-.29 0-.006.003-.017.05-.017.108 0 .302.072.5.188l.098.058c.343.193 1.053.597 1.864 1.543.185.215.238.381.224.417h-.011a.342.342 0 0 0-.05.006c-.124.019-.31.05-.348.36-.023.17-.078.27-.103.287 0-.003-.027-.025-.063-.1-.05-.097-.117-.199-.227-.199-.022 0-.042.006-.056.008a.514.514 0 0 1-.041-.09c-.017-.048-.072-.194-.207-.194a.273.273 0 0 0-.158.063l-.022.014c-.02-.053-.078-.188-.208-.188a.263.263 0 0 0-.085.017.103.103 0 0 1-.025.005c0-.003-.011-.017-.028-.05-.025-.058-.077-.091-.147-.091-.052 0-.107.017-.166.033-.063.02-.113.036-.152.036-.033 0-.041-.008-.047-.022-.052-.094-.127-.108-.166-.108-.066 0-.124.033-.182.064-.045.022-.097.05-.13.05-.011 0-.03 0-.058-.036-.02-.028-.08-.105-.17-.105-.085 0-.137.071-.179.127l-.02.025c-.04.055-.068.074-.102.074a.169.169 0 0 1-.047-.008.383.383 0 0 0-.127-.025c-.127 0-.182.091-.213.141-.03.047-.036.05-.047.05a.2.2 0 0 1-.063-.017.285.285 0 0 0-.128-.03c-.144 0-.207.127-.246.21-.044.088-.06.11-.088.11a.104.104 0 0 1-.028-.005.524.524 0 0 0-.147-.022c-.207 0-.235.174-.262.36l-.02.102c-.05.296-.182 1.515-.163 1.827.02.293.401.293.545.293.268 0 .639-.05 1.095-.113.9-.124 2.548-.622 3.403-1.333.215-.182.387-.202.448-.202.052 0 .08.014.083.017.008.044-.094.277-.31.456-.02.02-.044.039-.072.064-.266.235-.888.782-2.144 1.028-1.203.233-2.312.443-2.686.443a.382.382 0 0 1-.083-.006.247.247 0 0 0-.06-.008c-.061 0-.111.033-.128.083-.025.069.011.146.103.224.119.1.287.16.45.16a.638.638 0 0 0 .144-.016c.045 0 .175.124.271.212.26.244.65.611 1.168.611.652 0 1.593-.699 1.864-.915a2.23 2.23 0 0 1 .573-.29c-.028.036-.07.083-.133.15l-.047.046c-.6.6-1.22 1.22-1.82 1.236h-.075m7.696-.816c-.423.299-.659.401-.692.91-.036.511-.138 1.382-.329 1.46-.249.1-.213-.473-.29-.293-.111.257-.42.146-.512-.092-.039-.102-.949-.09-.219-1.147.661-.957 1.168-1.457 1.64-1.675.474-.219 1.276.218.402.837" fill="#2D2925"/><path d="M103.026 87.112c-.169-.429.127-1.148 1.04-.639.913.512 1.604.948.949 2.953-.658 2.004-1.131 3.168-1.386 4.009-.254.838-1.24 1.894-.913.473.33-1.421.504-3.138.365-4.01-.254-1.603.26-1.509.092-2.242-.053-.224-.086-.392-.147-.544m3.447 1.73c.263.788.547 2.588.108 3.315-.437.73-1.787 2.735-2.296 3.246-.512.509-.91.29-.584-.257.33-.547.766-1.274.766-1.529 0-.257-.036-.547.402-1.385.437-.838 1.203-3.647 1.275-3.863.072-.218.257.255.329.473m-9.407 6.742c-.218-.655-.33-1.604-.691-2.151.29-.802 1.25-2.956 2.879-3.606.18-.074.293-.257.219-.4-.075-.147.218-.255.365.254.146.509.4 1.966.4 1.966.073.329-.074.583-.146 1.023-.072.436-.254 1.42-.147 1.93.111.511.294.873 1.314.658.512-.111.473-.258.62-.694.144-.437.548-1.676.691-2.37.147-.691.02-2.386-.124-2.823-.15-.437.053-1.913-.055-2.203-.111-.293-.186-.73-1.096-1.02-.91-.294-1.167-.366-1.787.251-.62.622-.838.876-1.128 1.167-.293.293-1.02.036-.401-.545a58.455 58.455 0 0 0 1.383-1.35l-.18-.475h-.33c-.984.987-2.298 1.57-3.172 1.75-.329.07-.949.111-.511.694.11.147.146.548.403.401.255-.146.656-.802 1.021-.511.365.29-.072.984-.512 1.313-.437.33-.912.655-1.239.838-.329.182-.509.365-.473.948.036.58.072 1.64-.257 2.442-.326.801-.144 1.02.147 1.564.293.548.766 1.023.91 1.897.146.874.22 1.092.804 1.02.581-.072.803-.329 1.021-.694l.072-1.274z" fill="#E89E6C"/><path d="M97.284 97.26c-.254.436-.691 1.128-.691 1.75 0 .619-.62 1.274-.548 1.567.072.29.877 1.057 1.35 1.858.473.802 1.093 2.002 1.093 4.007 0 2.007-.656 4.739-.728 5.103-.075.365-.254.656.29 1.164.548.512 1.422 1.46 1.751 3.609.33 2.15.545 3.279.692 3.39.147.11.11.29.11.69 0 .404.363 2.699.62 3.136.255.437.219-2.477.18-3.315-.036-.838.039-4.847.182-5.43.147-.584.294-1.239-.218-1.969-.509-.73-1.383-2.004-.728-4.117.656-2.115 1.715-2.076 1.384-2.917-.327-.837-.91-1.42-1.348-1.894-.437-.472-.088-1.603-.107-2.079-.04-.873-.73-1.017-.803-2.001-.074-.985-.146-1.787.581-2.77.73-.982-.254-.95-.58-1.569-.332-.619-.507-1.446-.22-2.731.145-.658.073-.838-.112-.913-.18-.071-.946-.218-.946-.218l-1.129 2.262c.183.436.254 1.092.254 1.529l-.329 1.858z" fill="#9A3820"/><path d="M86.75 52.912c-.9 1.197-2.297 4.227-2.955 6.121-.655 1.897-2.15 6.415-1.092 9.403 1.056 2.986 3.136 1.092 3.61-.038.472-1.128 1.202-3.061 1.421-3.57.218-.511.33-.802.727.401.401 1.203.985 4.081.985 4.335 0 .258-.4.985-.838 2.116-.437 1.128-.691 1.93-.254 2.623.437.692 2.152 3.644 2.696 4.919.33.766.62.91 1.494.691.877-.218 2.99-.948 3.61-1.238.622-.29.329-.802.146-1.419-.276-.945-1.385-6.199-1.385-6.89 0-.691.188-1.598-.73-.583-.324.365-.764 0-.656-.509.11-.511 1.203-7.617 1.278-8.49-.623-1.35-2.443-5.613-2.954-6.38-.51-.762-.692-.801-1.458-.4-.766.4-2.476 1.017-3.098-.437-.11-.254-.29-.838.144-.91l-.327-.11s-.257.218-.365.365M96.3 79.113c-.678.387-2.987 1.382-3.936 1.531-.974.15-.73.401-.548 1.128.183.73.73 2.914 1.02 3.68.294.766.695.752 1.461.73 1.165-.036 3.134-.547 4.556-1.858-.404-.475-1.104-2.745-1.311-3.718-.221-1.02-.221-2.077-1.242-1.493M75.41 58.086c-.072.146-.326.583-.91.583-.584 0-1.057-.183-1.424.329-.363.509-2.368 2.95-2.805 4.443.437.912 1.02 2.552 1.457 3.719 1.422-1.203 5.961-5.63 6.819-6.487.329-.329.365-.619-.11-.948-.474-.329-2.225-1.421-2.515-1.603-.293-.183-.437-.183-.512-.036M63.927 64.5c-.28 1.123-.838 3.097-1.751 4.628.365.584.658 1.092 1.095 1.275 1.021-.727 2.952-2.516 3.5-3.171.547-.656 1.239-1.64 1.239-1.858 0-.219-.255-.29-.584-.219-.326.072-1.676-.467-2.99-.727-.363-.075-.473-.075-.51.072m-.8-1.093c-.401-.08-1.787-1.568-2.26-2.37-.476-.801-.548-.727-.73-.143-.183.58-.874 1.858-1.35 2.477-.473.62-1.712 2.223-2.041 2.588-.33.362 0 .508.293.802.29.29 1.787 2.112 2.113 2.513.33.4.694 1.13 1.568.326.874-.802 1.931-2.259 2.407-3.752.473-1.496.509-2.278.91-2.187l.02-.31-.111-.182-.219-.182c.055.127.055.237-.036.384-.091.144-.382.072-.564.036m22.311-33.525c-.982 1.158-2.954 2.184-6.27 3.024-3.317.838-6.49 3.169-7.84 4.3-1.35 1.13-4.75 3.912-6.378 4.592-.437.183-1.37.8-.183.946.874.11 1.494-.401 3.391-1.786 1.895-1.386 3.367-2.384 4.81-3.788 1.35-1.313 3.793-2.552 6.418-3.28 2.625-.73 6.074-1.877 7.072-2.952.473-.512.51-.766.075-1.203-.44-.437-.694-.326-1.095.147M68.703 41.341c-.285.158-.401.33-.73 1.386-.327 1.056-.29 1.675-.017 1.93.2.185.49.201.64.201.107 0 .218.036.198-.273-.02-.31-.038-1.632.949-2.223.183-.108-.025-.874-.675-.766-.218.039 0-.454-.365-.255m-11.265 4.173c.511 0 .838 0 .802.583-.036.584-.29 1.385-.327 1.933-.038.545-.038.763.29.763.327 0-.472.329-.912.4-.437.076-1.11.324-1.458-1.528-.107-.583-.072-1.496-.143-1.714.473-.219 1.125-.437 1.748-.437m9.691 1.556c.135.736.335.722.188.83-.147.11-.299-.277-.894-.18-.564.091-5.158.802-5.485.838-1.02.108-1.076-.056-.13-.257.95-.2 4.418-.83 5.452-1.037l.869-.194zm-5.535 55.729c.473.293 1.605.619 3.538-.183 1.93-.802 4.083-.254 4.41 1.131.328 1.385.34 3.168-.255 3.934-.512.656-.985.584-1.569.401-1.056-.329-3.499-1.457-4.193-1.786-.692-.326-1.859-.691-2.697-.691-.33-.694-.29-1.894-.072-2.334.219-.436.219-.873.401-.763.183.108.437.29.437.29m7.656 6.45c.473 0 1.333.2 1.604 1.06.219.69 1.64.873 2.26.837.62-.036.512.29.473.655-.036.365-.144 1.457-.144 1.894 0 .437.108 1.969.183 2.26.072.292-.183.439-.512.583-.329.146-1.532.511-2.296-.036-.403-.288-.876-.692-.4-.73.472-.033-.584-4.153-.877-4.883-.29-.727-1.132-1.64-.29-1.64m-12.543-8.599c.196.066.293.257.437.511.147.255.196.473-.036.728-.401.44-.874 2.441-.802 3.862-.255-.072-.802-.18-1.093-.108-.11-.802-.036-3.315.33-4.12.362-.798.727-1.02 1.164-.873m.073 22.228c.908 1.023 2.625 2.588 3.9 3.136 1.278.547 2.116.727 3.245.619.916-.089.73.29 0 .4-.727.109-2.404.109-3.496-.472-1.096-.586-2.83-1.662-3.94-3.246-.256-.365 0-.763.291-.437m18.994-2.55c-.741.338-2.113 1.02-3.424 1.35.143.655.18.945.18 1.127.802 0 2.348-.558 3.61-1.346.292-.182.4-.4.292-.658-.11-.254-.257-.655-.658-.473m-8.639-2.988c-.183-.18.854-.401 1.073-.401.257.166.722.575.896.749.108.108.055.18-.055.254-.11.072-.747.238-1.04.255-.33-.29-.783-.766-.874-.857m1.932-15.159c-.293-.219-.254-.327-.11-.548.146-.218.293-.365.44-.437.143-.072.362-.108.619.255.254.365 1.637 2.662 1.93 3.282.291.619.656.215.512-.147-.146-.365-.44-.984-.547-1.167.4-1.238.802-3.132.802-4.371 0-1.241-.29-2.48-.512-2.917.985.036 3.134 0 3.975-.254.838-.257.144-.33-.183-.293-.329.036-2.686.027-4.412-.18-2.987-.365-5.924-2.046-6.851-3.21-.147-.18-1.023-.108-.293.476.73.583 2.589 2.322 5.322 2.806.62.108 1.604.29 1.75 2.549.144 2.262-.074 3.719-.074 3.937 0 .219-.144.29-.327.036-.182-.254-.802-1.092-1.13-1.274-.327-.183-.546-.147-.839.071a7.03 7.03 0 0 0-.91.874l.838.512zm-5.87 7.124c-.274 0-1.914.127-2.26 0-.348-.127-.57-.526-.329-.691.293-.202.857.055 1.422.055.567 0 1.167-.147 1.314-.055.143.09.345.055.345.746l-.492-.055zm-3.974 10.002c-.473-.29-1.023-1.64-1.131-4.335-.036-.913.329-2.441.622-3.171.29-.728-.185-.437-.293-.183-.108.257-.473 1.277-.584 2.04-.108.766-.29 1.897 0 3.537.293 1.64.44 2.148.512 2.441l.874-.329z" fill="#FEFEFE"/><path d="M75.903 32.286c.492.055 1.04.02 1.167-.33.127-.345.017-.563-.147-.635-.163-.075-.235-.055-.163-.385.072-.326.31-.29.293-.801-.022-.509-.4-.528-.75-.418-.345.108-.472.271-.801.71-.327.438-.183-.292-.128-.42.053-.118.183-.956-.265-1.108-.255.127-.504.251-.744.376-.08.16-.141.348-.21.533-.183.473-.407.12-.567-.11l-.003-.003c-.487.268-.913.52-1.237.733l-.108.072c.045.287.39.65.584.785.235.163.089.473-.202.473-.293 0-.655-.2-1.02.237-.366.437-.128.855.218.855s.639.13.766.528c.127.4.238.567.711.62.473.054.747-.31.874-.529.127-.218.293-.528.493-.453.298.107.26.42.168.752.343-.2.695-.39 1.068-.573a1.537 1.537 0 0 0-.379-.727c-.166-.163-.11-.238.382-.182m4.066-5.284a9.4 9.4 0 0 0-.529.138c.089.415.255.951.163 1.029-.107.09-.528.163-.857.254-.326.091-1.112.821-.71 1.346.4.531.53.841.602 1.115.072.273.728.6 1.184.052.456-.544.802-1.147.913-.763.091.32.066 1.098.003 1.515l.287-.058c.183-2.04-.326-3.497-1.056-4.628M69.96 36.786c-.254-.199-.329-.511-.019-.6.313-.091.73-.166 1.497-.492.763-.33.362-.893.019-1.04-.349-.146-.385-.472-.349-.82.04-.346-.052-.855-.727-.6-.675.254-.44.912-.64 1.13-.198.218-.309.144-.273-.182.036-.33-.254-.548-.418-.622a2.499 2.499 0 0 0-.647-.142c-.7.63-1.336 1.289-1.82 1.941.108.224.362.476.498.515.183.055.456.185.437.547-.017.31-.71.33-1.164.34.32.871.647 1.49 1.103 1.983.103-.028.24-.075.426-.155.564-.235.747-1.092.838-1.347.092-.257.33-.202.493.127.116.23.155.443.174.647.32-.32.63-.619.938-.904a3.702 3.702 0 0 0-.366-.326m9.68 21.774c.108-.017-.183-1.311.055-1.367.238-.055.346.71.858.62.509-.092.636-.6.564-1.167-.072-.564.254-.254.512-.655.251-.401-.293-.946-.913-.564-.62.381-.512-.128-.183-.33.33-.198.092-.928-.6-.69-.503.17-.755-.155-.996-.29-.185.071-.368.148-.55.229-.042.143-.008.315.033.497.053.233.163.838-.218.584-.335-.222-.786-.346-.913.072-.127.42.127.456.091.71-.039.254-.694.31-.384.838.31.528.766.238 1.078.036.307-.2.6.038.49.31a5.515 5.515 0 0 0-.268 1.404c.143.094.296.2.456.312.183-.185.526-.489.888-.55m-9.934-1.256c.271-.072.802.492 1.275.163.476-.326-.199-.655-.108-.929.092-.274.31-.802-.02-1.056-.326-.255-.674-.02-1.02.365-.346.381-.218-.349-.036-.658.238-.401 0-.672-.4-.747-.402-.072-.53.492-.803.238-.434-.404-1.112-.238-.949.33.166.563.346.746 0 .817-.345.072-.675-.837-1.076-.107-.4.727.238.945.183 1.493-.055.547.166 1.13.492 1.183.33.055.675-.31.858-.528.182-.219.62-.382.564.036-.039.29-.058.89-.066 1.236.669-.327 1.388-.667 1.78-.797.017-.008.034-.013.048-.019a3.374 3.374 0 0 1-.686-.365c-.365-.254-.31-.583-.036-.655M61.63 73.902c.839-.254.875.4.767.948-.111.545-.111 1.712-.075 2.295l1.386.072c-.072-.365 0-1.421.039-2.04.033-.62.655-1.568.874-.62.218.948 1.164.984 1.822.584.656-.401 1.132-1.275 1.823-2.514.692-1.241-.218-1.567-.766-1.495-.548.071-1.093.146.147-.874 1.153-.949-.789-1.427-1.68-1.604-1.468 1.543-3.274 3.288-4.884 4.664-.205.175-.396.343-.581.506.194.111.573.247 1.128.078m-1.458 9.183c.691-.218 1.131 1.275 2.152.4 1.02-.873.29-1.603.254-2.333-.036-.73.803-1.02.548-1.93-.39-1.387-1.679-.074-2.481.692-.8.766-.838.146-.036-1.092.802-1.239-.509-1.643-1.311-1.314-.714.29-1.367.009-1.787-.365-.307.493-.534.949-.766 1.424-.692 1.421-.219 1.455.293 1.455.509 0 1.602 2.15 1.748 2.552.053.14.426.688.921 1.387-.027-.345.039-.743.465-.876m19.942-14.359c-.659-.143-1.508-.254-1.605 1.095-.035.509.473.91.946 1.092.476.183.402.51-.107.327-.51-.183-.91-.29-1.276.765-.365 1.06.29 1.206.62 1.278.33.072.584.144.512.583-.075.437-.293 1.712.545 1.822.838.108 1.568-.912 1.822-1.42.258-.512.545-1.024.62-.44.075.583-.036.876-.326 1.531-.294.655-.294.949.146.913.437-.04 1.165 0 1.383-.512.219-.511.548-1.493.584-2.187.022-.434.404-.48.683-.456a40.63 40.63 0 0 1 .302-2.096c-1.43.216-2.65-1.532-3.073-3.044-.487.528-1.2.877-1.776.75m-6.817-.255c-.257.437-.984 1.676-.658 2.076.33.401.694-.4.985-.107.293.293.949.616.949.4 0-.218.071-.658.182-1.238.11-.584.365-.913.62-.44.254.476.62.877 1.53.658.912-.218.801-1.167.622-1.858-.186-.694.473-1.02.8-1.202.328-.183 1.166-.84.547-1.424-.62-.58-1.168.257-1.712.365-.548.11-.33-.365.802-1.239.976-.755.157-1.51-.437-1.772-1.569 1.581-4.349 4.141-4.96 4.725-.218.21-.406.456-.583.75 1.466-.684 1.554-.109 1.313.306m9.041 14.65c.473.436 1.604 1.056 2.406.326.803-.727-.182-1.53-.29-2.113-.11-.583.584-.948.218-1.893-.636-1.651-1.568.326-2.116.873-.547.545-.456-.381.036-.873.258-.258 1.386-.949.73-1.715-.658-.766-1.604-.329-2.077 0-.475.33-.838.73-1.568.512-.73-.219-1.35-.293-1.787.766-.437 1.053.401.763 1.093 1.529.694.765.257.801-.29.619-.548-.183-.803-.874-1.605-.766-.802.108-.802 1.385-.545 1.714.255.327.764.509.398 1.128-.362.62.183 1.35.839 1.64.658.293 1.64-.874 2.008-1.347.362-.475.727-.365.652 0-.06.313-.232 1.137-.254 1.825a42.81 42.81 0 0 1 1.632-.486c0-.382-.083-.998-.246-1.593-.219-.802.293-.583.766-.146m-9.478 3.899c-.875.254-1.021-.146-1.605-.365-.584-.218-.62.29-.219.91.402.622.839 1.202.366 1.202-.476 0-.839.075-.913.44-.072.362-.838-.075-1.02-.84-.183-.766-.363-2.22-.767-1.493-.398.727-.766 1.932-1.784 1.385-1.024-.548-.33-1.275-.841-1.786-.509-.51-.982-1.167-.473-2.077.512-.912.949-.146 1.422-.146s.547-.437.11-.766c-.44-.326-.984-1.894 1.021-1.786.772.044 1.604-.219 2.26-.691.655-.476 2.37-.219 1.676.984-.691 1.203-.473 1.457-.072 1.02.401-.44.91-1.239 1.676-1.02.767.218.437.802-.036 1.457s-.182 1.095.183 1.35c.365.253 1.034 1.633-.985 2.222m3.719-8.601c-.658.037-1.46-.146-1.46-.146-.072.691-.744 1.684-1.422 2.699-.072.108-.473.108-.655-.039-.183-.147-.692-.4-.29-.838.4-.437 1.056-1.349.945-1.75-.108-.398-.398-.763-.838-.218-.437.547-1.128 1.678-1.895 1.714-.766.036-1.53-.655-1.167-1.35.365-.69.473-1.056-.036-1.675-.509-.62-.32-1.413.766-1.897.327-.143.91 0 1.311.33.402.328.62 0 .075-.33-.548-.326-.985-.727-1.06-1.457-.068-.69.366-1.418 1.315-1.02.946.401 1.53.072 1.93-.254.404-.33 2.114-.738 1.862.766-.185 1.092-.692 1.128-.841 1.711-.144.583.293.219.548-.218.254-.437.838-2.226 2.041-.874.293.329.183.874-.183 1.493-.362.62-.071.984.147 1.313.219.327.728 1.938-1.093 2.04" fill="#007940"/><path fill="#FEFEFE" d="M106.652 49.439l1.114-.788 2.412 3.58 1.42-1.006-2.484-3.511 1.081-.76 2.642 3.704 1.424-1.009-3.928-5.5-6.458 4.574 3.562 5.065 1.422-1.006zm4.668 12.44l2.113-.976-1.455-3.16 4.946-2.06-.896-1.98-6.99 3.039zm1.259 3.341l.218 1.95 4.691-.553.186 2.032 2.1-.155-.587-6.815-2.1.157.183 2.834zm.236 6.646l.03 2.323 6.894-.022-.028-2.32zm3.239 5.605c-1.156-.221-2.525-.03-3.482.697-.86.652-1.262 1.308-1.488 2.496-.144.752-.028 1.742.224 2.61l1.82-.61c-.175-.42-.25-1.057-.058-1.704.367-1.244 1.38-1.805 2.616-1.623 1.311.191 2.058 1.394 1.823 2.826-.091.57-.376 1.064-1.026 1.451l1.128 1.36c.919-.563 1.616-1.67 1.765-2.449.252-1.31-.06-2.214-.67-3.279-.591-1.04-1.592-1.57-2.652-1.775M114.79 87.1c-.963-.246-2.274.81-2.908 1.419-.365.35-1.637 1.634-2.227 1.434-.525-.176-.365-.978-.188-1.504.26-.765.656-1.41 1.273-1.824l-1.143-.506c-.556.464-1.172 1.21-1.427 1.963-.293.87-.415 1.888-.29 2.535.16.832.45 1.363 1.394 1.277.724-.066 2.547-1.25 3.601-2.242.531-.503.988-.556 1.225-.426.385.213.36.868.222 1.28-.186.55-.448 1.391-.885 1.7l1.557 1.046c.636-.639.965-1.6 1.15-2.5.454-2.167-.721-3.489-1.355-3.652m-8.659-45.748c-.135-1.067-.724-2.294-1.325-2.814-.929-.805-2.024-1.02-3.194-.868-1.184.155-2.285.915-2.907 1.797-.678.962-1.068 2.286-.8 3.459.24 1.05.675 1.686 1.665 2.383.628.442 1.58.741 2.473.87l.191-1.91c-.454-.013-1.065-.207-1.574-.647-.985-.848-1.032-2.192-.406-3.052.78-1.073 2.138-1.302 3.346-.5.482.32.67.835.756 1.59l1.775-.308zM35.604 81.06c.05-.52.02-1.474.584-1.592.544-.117.904.414 1.02.956.166.79.39 1.405.072 2.077l1.466-.153c.244-.682.169-1.592.003-2.369-.19-.896-.476-1.529-1.137-2.115-.636-.564-1.117-.713-2.044-.517-.567.119-1.574 1.13-1.61 3.166-.005.384-.1 1.122-.445 1.139-.443.022-.766-.503-.858-.926-.119-.567.045-1.811.26-2.3l-1.538-.01c-.22.875-.307 2.1-.116 2.995.418 1.98 1.618 2.627 2.592 2.519 1.04-.113 1.588-1.2 1.75-2.87m-3.073-8.348l5.443-.069-.025-1.709-5.443.07-.023-2.32-1.742.02.069 6.494 1.743-.02zm9.832-17.082l-4.205-2.421.014-.022 5.565-.092 1.328-2.048-6.857-3.954-1.037 1.612 4.68 2.936-6.384.183-.89 1.72 6.748 3.917zm-6.808 3.977a2.193 2.193 0 1 1 0 4.388 2.198 2.198 0 0 1-2.196-2.195c0-1.211.985-2.193 2.196-2.193m0 6.406a4.213 4.213 0 0 0 0-8.424 4.213 4.213 0 1 0 0 8.424m2.716 25.696a2.198 2.198 0 0 1-2.196-2.196 2.195 2.195 0 0 1 4.39 0 2.195 2.195 0 0 1-2.194 2.196m4.213-2.196a4.212 4.212 0 0 0-4.213-4.21 4.213 4.213 0 1 0 0 8.424 4.213 4.213 0 0 0 4.213-4.214m3.702 9.823l-.144-.175c-.465-.558-2.036-2.22-1.389-2.828.592-.558 2.086 1.335 2.506 1.841l.183.222-1.156.94zm-2.59 2.336c-.555-.666-2.215-1.971-1.507-2.638.675-.636 2.34 1.394 2.548 1.643l-1.04.995zm-.254-7.346c-.647.572-.96 1.932-.351 2.856-.664-.324-2.003-.434-2.62.1-1.515 1.315.324 3.218 1.834 4.727l2.105 2.077 5.596-4.626-2.265-2.635c-.794-.998-2.99-3.658-4.299-2.5z"/><path d="M68.247 116.1c.238-.11.564-.255.711-.147.147.11 1.02.73 1.568 1.206.545.472.728.619.29.873-.436.255-.837.51-.763.29.072-.218.18-.544-.11-.837-.293-.29-1.007-.843-1.314-1.092-.2-.166-.382-.293-.382-.293m-2.06.602c-.183.163-.219.436 0 .655.219.218 1.441 1.239 1.64 1.44.202.2.493.274.822.2.326-.072-.385.4-.659.456-.27.052-.58.052-.874-.219-.29-.273-1.93-1.822-2.26-2.131-.329-.31.092-.31.382-.346.293-.036.548-.02.949-.055m-2.041-9.329c.11.332.146.636-.365.564-.51-.072-2.661-.274-3.281-.274-.147 0-.091-.362-.31-.218-.218.146-.127.472-.127.84 0 .362-.03.58-.017.838.017.381.255.91 1.237.962.985.055 1.914-.052 2.207-.251.29-.202-.02-.531-.293-.531-.271 0-1.914.127-2.26 0-.346-.128-.57-.526-.326-.692.29-.201.857.056 1.421.056.565 0 1.165-.147 1.312-.056.146.092.348.056.348.747 0 .146.343.202.509.202.163 0 .235.274.218.636-.019.365.017.44-.638.44-.656 0-3.48-.04-3.9-.04-.164 0-.183-.127-.2-.456-.02-.326-.127-2.604-.166-2.787-.036-.182.437-.199.822-.127.382.075.857.147 1.477.183.62.036 1.565.127 1.565.127s.476.055.529-.091c.055-.144.202-.18.238-.072m10.007-77.565c.07-.177.127-.37.202-.528a30.32 30.32 0 0 0-.763.412c.16.226.379.586.561.116m6.581.364c-.11-.382-.456.218-.913.766-.456.547-1.112.218-1.183-.056-.072-.273-.2-.583-.6-1.111-.405-.528.381-1.255.71-1.35.327-.088.747-.163.855-.254.094-.077-.072-.614-.16-1.028-1.312.373-2.91 1.059-4.321 1.753.431.166.304.998.252 1.117-.053.127-.2.857.127.417.329-.437.456-.6.802-.708.349-.11.73-.09.75.418.016.511-.219.473-.294.802-.072.326 0 .31.166.381.164.075.271.293.144.639-.127.345-.672.381-1.167.329-.492-.055-.545.016-.382.182.133.133.313.423.376.727 1.187-.572 2.623-1.053 4.844-1.51.06-.42.085-1.196-.006-1.514m-11.52 7.198c-.163-.33-.401-.385-.492-.128-.092.255-.274 1.112-.839 1.347a3.358 3.358 0 0 1-.428.152c.196.213.415.4.664.578.448-.47.865-.902 1.264-1.3a1.667 1.667 0 0 0-.17-.65m5.45-4.354c-.2-.072-.363.238-.493.456-.127.218-.4.583-.874.528-.473-.055-.583-.218-.71-.62-.128-.4-.418-.527-.767-.527-.346 0-.583-.42-.218-.857s.73-.238 1.02-.238c.29 0 .44-.31.202-.473-.188-.13-.52-.503-.578-.788-1.04.683-2.53 1.74-3.83 2.911a2.2 2.2 0 0 1 .635.155c.164.072.454.29.418.62-.036.326.072.4.274.182.2-.218-.036-.876.639-1.13.675-.255.766.254.727.6-.036.348 0 .674.349.82.343.147.744.71-.02 1.04-.766.326-1.183.4-1.496.492-.31.091-.235.401.02.6.154.122.268.24.359.332a22.935 22.935 0 0 1 2.904-2.317 31.009 31.009 0 0 1 1.613-1.034c.088-.33.119-.647-.174-.752m-7.146 3.407c.02-.365-.254-.492-.437-.547-.133-.04-.382-.3-.492-.52a6.067 6.067 0 0 0-.473.721c.08.246.157.473.238.686.456-.011 1.15-.033 1.164-.34m15.404 17c-1.192-.075-2.614.165-3.972.688.238.144.49.465.982.296.694-.238.932.492.603.691-.329.202-.44.71.18.33.62-.382 1.167.162.913.563-.255.401-.584.091-.512.655.075.567-.052 1.076-.564 1.167-.512.091-.62-.672-.855-.62-.24.056.053 1.35-.055 1.367-.357.06-.697.37-.88.555l.039.028c2.008 1.44 2.517.658 2.807-.036.294-.691.94-2.743 1.132-3.826.11-.62.254-1.275.182-1.858m-4.356 3.972c.11-.274-.183-.51-.493-.31-.31.202-.766.492-1.076-.036-.31-.53.346-.583.382-.838.039-.254-.216-.293-.088-.71.127-.42.578-.296.91-.075.384.257.27-.348.218-.583-.039-.177-.069-.357-.036-.495-.393.18-.78.378-1.148.605-1.872 1.145-1.933 2.113-1.496 2.477.393.327 1.195.482 2.556 1.37a5.857 5.857 0 0 1 .27-1.405m-5.96-1.094c-.774-.387-1.532-1.239-2.041-2.223 0 0 .036-.144-.183-.144-.218 0-1.02-.075-2.37-.547-1.35-.473-1.53-.183-1.712.4-.183.584-.33 1.64-.365 3.39-.036 1.748.727 2.842 1.203 2.66.23-.091.827-.387 1.463-.697.011-.348.03-.948.066-1.236.056-.417-.381-.254-.564-.036-.182.219-.528.584-.855.529-.329-.056-.547-.636-.492-1.184.053-.547-.584-.766-.183-1.493.402-.73.728.18 1.076.108.343-.072.164-.254 0-.821-.165-.564.512-.733.946-.326.274.254.402-.31.803-.238.4.072.639.345.4.746-.182.31-.31 1.04.04.658.342-.384.69-.622 1.017-.365.33.255.111.783.02 1.057-.092.273.583.602.108.929-.473.326-1.002-.235-1.276-.164-.27.072-.326.401.036.656.238.166.49.296.673.37.757-.257 1.648-.755 1.936-.934l.473.036c.036-.62 0-1.02-.219-1.131m-2.698 8.018c-.29-.656-.393-.153-1.203 1.13-.41.647-1.444 1.85-2.739 3.208.897.18 2.83.655 1.682 1.603-1.24 1.018-.694.946-.147.874.548-.075 1.461.254.767 1.493-.692 1.239-1.168 2.112-1.823 2.516-.656.398-1.604.362-1.823-.583-.218-.949-.838 0-.874.619-.039.62-.11 1.675-.039 2.04l-1.383-.074c-.039-.581-.039-1.748.072-2.295.11-.545.072-1.203-.766-.949-.548.17-.921.028-1.118-.085-1.629 1.451-2.453 2.45-3.006 3.334.42.37 1.084.65 1.792.36.8-.33 2.113.074 1.311 1.313-.802 1.239-.766 1.858.036 1.092s2.091-2.082 2.481-.691c.255.91-.583 1.2-.547 1.93.036.73.766 1.457-.255 2.333-1.02.874-1.46-.622-2.152-.4-.417.132-.503.516-.478.856.907 1.283 2.23 3.097 2.702 3.88.73 1.202.73 2.662 1.02 2.44.291-.218.986-.873 1.204-1.055.219-.183.437-.401.33-.802-.111-.401-.532-2.55-.402-4.045.144-1.712.946-3.589 1.53-4.664.561-1.034 2.26-4.338 2.66-5.212.402-.874 1.132-1.894 1.315-2.696.182-.802.874-2.66 1.167-3.536-.075-.727-.545-2.204-1.314-3.934m5.468-8.128a85.895 85.895 0 0 1-.655 1.68c-.147.361-.819.22-.766-.04.11-.544-.67-.185-.584-.619.075-.365-.072-.948.33-.948.4 0 1.166-.072 1.675-.072" fill="#8C6F4B"/><path d="M74.153 29.808c.07-.177.127-.37.202-.528a30.32 30.32 0 0 0-.763.412c.16.226.379.586.561.116m2.425 48.612c-.658.037-1.46-.146-1.46-.146-.072.691-.744 1.684-1.422 2.699-.072.108-.473.108-.655-.039-.183-.147-.692-.4-.29-.838.4-.437 1.056-1.349.945-1.75-.108-.398-.398-.763-.838-.218-.437.547-1.128 1.678-1.895 1.714-.766.036-1.53-.655-1.167-1.35.365-.69.473-1.056-.036-1.675-.509-.62-.32-1.413.766-1.897.327-.143.91 0 1.311.33.402.328.62 0 .075-.33-.548-.326-.985-.727-1.06-1.457-.068-.69.366-1.418 1.315-1.02.946.401 1.53.072 1.93-.254.404-.33 2.114-.738 1.862.766-.185 1.092-.692 1.128-.841 1.711-.144.583.293.219.548-.218.254-.437.838-2.226 2.041-.874.293.329.183.874-.183 1.493-.362.62-.071.984.147 1.313.219.327.728 1.938-1.093 2.04m-3.72 8.602c-.874.255-1.02-.15-1.604-.365-.581-.218-.62.29-.219.91.401.62.838 1.203.365 1.203s-.838.071-.912.436c-.072.365-.838-.071-1.018-.837-.183-.766-.365-2.223-.766-1.496-.402.73-.767 1.932-1.787 1.388-1.021-.548-.33-1.278-.838-1.789-.512-.509-.985-1.164-.476-2.076.512-.91.949-.144 1.424-.144.473 0 .545-.44.108-.766-.437-.33-.985-1.894 1.02-1.786.773.041 1.605-.219 2.26-.691.656-.476 2.371-.222 1.68.984-.695 1.2-.476 1.457-.075 1.02.401-.44.913-1.239 1.676-1.02.766.218.44.799-.036 1.457-.473.655-.182 1.092.183 1.346.365.258 1.037 1.634-.985 2.226M85.8 80.497c-.946-1.565-1.128-2.187-1.275-3.79-.09-1.01-.01-2.326.136-3.59-.28-.021-.661.031-.683.457-.036.691-.365 1.675-.584 2.184-.218.512-.946.476-1.383.512-.44.038-.44-.255-.147-.91.29-.658.401-.948.327-1.532-.072-.583-.363-.072-.62.437-.254.512-.982 1.532-1.823 1.421-.838-.108-.62-1.382-.545-1.822.072-.437-.182-.508-.511-.583-.33-.072-.985-.219-.62-1.275.365-1.056.766-.948 1.275-.766.512.183.584-.143.11-.326-.475-.182-.984-.583-.948-1.095.097-1.349.949-1.238 1.604-1.092.573.125 1.292-.215 1.782-.738a1.012 1.012 0 0 1-.03-.102c-.974-3.708.873-8.27 1.382-9.545.512-1.277 2.482-4.866 3.156-5.941-.365-.183-1.33-.672-1.861-.949-.526-.27-.819-.4-.965-.199-.147.2-.33.31-.584.675-.512.73-.072.62.075.62.143 0 .763.801.874.984.11.182 0 .326-.255.91-.334.762-.547 2.515-.838 3.571-.885 3.2-2.26 2.879-2.88 2.478-.622-.401-.801.218-1.424 1.095-.146.207-.517.605-1.007 1.097.592.266 1.397 1.029.426 1.78-1.131.875-1.35 1.35-.802 1.24.545-.111 1.093-.949 1.712-.365.62.583-.218 1.238-.547 1.42-.327.183-.985.512-.803 1.203.183.692.29 1.64-.62 1.858-.91.219-1.274-.182-1.529-.655-.257-.473-.511-.146-.62.437-.11.583-.182 1.02-.182 1.239 0 .218-.655-.108-.949-.399-.29-.293-.655.51-.984.108-.327-.4.4-1.64.658-2.076.24-.415.138-.984-1.311-.315-.468.785-.841 1.924-1.425 3.702-.802 2.444-2.62 5.77-3.371 6.978-1.964 3.158-2.316 6.14-2.025 7.999.29 1.85.547 1.714.949 1.714.4 0 1.385 1.239 2.04 2.005.656.765.914.436 1.24.18 1.054-.819 3.173-2.185 6.163-3.606 1.272-.606 2.97-1.252 4.627-1.78.028-.689.194-1.516.255-1.828.075-.365-.29-.473-.653 0-.368.473-1.35 1.64-2.008 1.35-.656-.294-1.2-1.021-.835-1.64.362-.62-.147-.805-.401-1.131-.258-.327-.258-1.604.544-1.714.803-.108 1.057.586 1.605.765.547.183.984.147.29-.619-.691-.763-1.53-.473-1.092-1.529.437-1.056 1.056-.984 1.786-.766.73.219 1.093-.182 1.569-.508.473-.33 1.422-.766 2.077 0 .656.763-.473 1.457-.73 1.711-.492.492-.581 1.421-.036.874.548-.545 1.48-2.525 2.116-.874.365.946-.33 1.31-.219 1.894.108.583 1.093 1.385.29 2.115-.801.727-1.933.108-2.406-.329-.473-.437-.984-.655-.766.147.16.591.244 1.21.246 1.592 1.594-.44 2.985-.708 3.693-.644 1.04.091 1.823.4 1.787-.548-.039-.948-.548-1.603-1.497-3.17" fill="#8C6F4B"/><path d="M0 0h150v150H0z"/></g></svg>