<svg width="150" height="150" viewBox="0 0 150 150" xmlns="http://www.w3.org/2000/svg"><title>MEM</title><g fill="none" fill-rule="evenodd"><path d="M121.443 48.858v-.003a57.978 57.978 0 0 0-.725-1.067c4.9-8.862.896-16.724-5.077-20.371-6.05-3.693-14.93-3.622-19.944 3.528-9.696-1.502-17.905 1.513-20.288 2.517-2.588-1.095-10.592-3.968-20.131-2.543-5.936-7.584-14.6-7.008-20.291-3.14-5.902 4.009-9.295 12.01-4.767 19.836-.285.403-.566.817-.845 1.243-14.03 21.302-3.811 35.783-3.37 36.388l.978 1.342 1.576-1.57c1.578 4.653 6.311 14.993 18.703 22.458l1.767 1.064.45-2.469c4.35 4.104 8.52 6.338 12.574 8.507 4.391 2.353 8.538 4.575 12.517 9.063l1.075 1.214 1.064-1.226c3.41-3.94 7.58-6.08 12-8.347 4.448-2.28 9.024-4.627 13.251-8.93v2.464l2.045-.997c11.937-5.798 16.21-16.207 17.7-21.952l.614 1.13 1.34-1.663c.12-.15 11.834-15.132-2.216-36.476" fill="#FEFEFE"/><path d="M120.254 49.637a49.351 49.351 0 0 0-1.226-1.772c10.234-16.737-13.908-29.57-22.651-15.364-10.76-1.978-19.756 1.947-20.965 2.512-1.214-.559-10.097-4.439-20.757-2.554-10.558-14.817-32.333.505-22.731 15.213-.46.63-.913 1.283-1.36 1.965-13.652 20.728-3.407 34.775-3.407 34.775l2.102-2.094s2.983 14.45 18.74 23.944l.57-3.113c9.704 10.343 18.694 10.107 27.065 19.55 7.745-8.949 18.988-8.949 27.748-20.12v3.967c16.187-7.865 17.674-24.864 17.674-24.864l1.496 2.762s11.349-14.079-2.298-34.807" fill="#00275D"/><path d="M85.933 64.319c.757-.278 2.094.522 2.81 1.913 3.285-.948 3.106-5.367 3.09-5.677-2.606 1.01-4.754 2.754-5.9 3.764" fill="#FDB826"/><path d="M87.864 66.93c7.952 21.362-2.179 35.086-2.179 35.086 6.24-16.301 2.23-29.86-.5-34.896-1.403.14-3.087.057-3.087.057s2.105-1.3 3.473-2.537c.108-.097.23-.207.37-.327-.003 0-.006.003-.009.006.757-.275 2.094.522 2.81 1.91 3.28-.942 3.106-5.344 3.09-5.67a11.424 11.424 0 0 1 3.023-.747s-.754 7.022-6.991 7.118m3.967-6.375v.003a4.026 4.026 0 0 1-.105.043c.037-.014.068-.032.105-.046M38.806 46.176c-.287-2.69 3.123-5.359 3.123-5.359-1.405-1.45-3.862-.193-3.862-.193 2.23-4.348 7.218-2.222 7.218-2.222-1.891-2.31-5.896-2.166-5.896-2.166 4.955-4.899 10.936 2.591 10.936 2.591-5.324 1.201-11.519 7.349-11.519 7.349m61.606-6.812s3.234-8.067 13.144-6.122c0 0-9.096-5.972-15.428 4.83 0 0-8.982-4.254-22.523 1.59 0 0-12.833-4.465-22.506-1.936 0 0-5.643-9.772-13.587-5.745-7.944 4.02-3.797 13.327-2.415 15.74 0 0-13.166 13.385-8.214 29.933l2.648-3.298s3.78 18.02 13.538 23.7l.583-4.428s10.188 12.265 22.168 17.473c1.138.534 7.492 3.682 7.688 5.234v-8.583s-8.316.69-10.512-3.136c-1.488-2.6-11.041-19.61-6.323-37.425 0 0-4.593-.686-5.458-8.421 0 0-3.43-1.666-7.688-1.323 0 0 7.62-2.384 14.759.375 7.136 2.756 9.047 9.778 13.888 6.676l1.431-19.78 1.36 19.78c4.838 3.102 6.752-3.92 13.885-6.676 7.142-2.759 14.762-.375 14.762-.375s-3.047-2.143-7.944-3.12c-4.087-.82-10.094 1.806-10.094 1.806s.827-5.611 3.555-8.603c2.34-2.574 7.648-3.142 9.283-8.166M75.54 85.652c.907-.136 15.279-.658 6.473 8.257 6.14-8.115-5.003-8.174-6.473-8.257" fill="#6089B8"/><path d="M59.664 60.547c-.02.326-.187 4.74 3.09 5.682.705-1.365 1.965-2.157 2.733-1.922-1.755-1.36-3.954-2.875-5.823-3.76" fill="#FDB826"/><path d="M75.51 96.437v4.059l-2.767.145c-2.901.09-6.698 1.266-6.698 1.266-7.037-17.391-3.135-30.553-1.255-35.247-6.977 1.51-8.103-6.847-8.103-6.847.72-.147 1.78.165 2.978.733-.02.329-.19 4.737 3.089 5.682.702-1.36 1.962-2.151 2.728-1.919.52.398 1.004.792 1.424 1.147 4.745 3.982 8.428 3.17 8.428 3.17s.051 15.163.051 17.022c0 0-13.723-1.07-6.348 8.26 0 0 1.18-3.412 2.44-2.336 1.747 1.496 4.033 4.541 4.033 4.865M59.674 60.551l-.009-.003.009.003m15.84 45.15c-10.032 0-8.681-2.208-8.681-2.208 1.08-.67 8.106-.809 8.666-.809.555 0 7.608.14 8.686.81 0 0 1.354 2.207-8.672 2.207" fill="#BDD3E8"/><path d="M0 0h150v150H0z"/></g></svg>