<svg width="150" height="150" viewBox="0 0 150 150" xmlns="http://www.w3.org/2000/svg" xmlns:xlink="http://www.w3.org/1999/xlink"><title>TOR</title><defs><path id="a" d="M0 .008v99.479h99.971V.008H0z"/></defs><g fill="none" fill-rule="evenodd"><g transform="translate(25 25.087)"><mask id="b" fill="#fff"><use xlink:href="#a"/></mask><path d="M99.62 43.878c-.002-.013-.002-.026-.006-.036-.016-.123-.405-2.96-.713-4.496a3.247 3.247 0 0 0-.65-1.367.779.779 0 0 0 .062-.48l-.243-1.365c-.088-.427-.373-1.273-.4-1.348l-.668-2.048-4.232-9.056-4.043-5.598-1.064-1.3a.812.812 0 0 0-.627-.298h-.003l-.344.004a4.674 4.674 0 0 0-.425-.778l-1.347-1.77-3.943-3.313a.886.886 0 0 0-.097-.068c-.13-.113-.279-.227-.441-.353l-1.405-1.18-5.53-3.306-4.348-2.045c-.873-.347-1.552-.61-2.09-.781a.756.756 0 0 0-.221-.117c-.47-.168-.74-.259-.925-.32-.156-.05-1-.34-1.713-.587-.555-.188-1.035-.354-1.146-.386l-3.956-.92-.652-.062-.934.094a.813.813 0 0 0-.523.262l-.681.752-1.094-.401-3.803-.788-.244.02L49.675.18 46.563.008l-4.416.26-4.07.787-.308-.007a1.15 1.15 0 0 0-.315.056l-8.658 3.364-6.305 3.494-5.023 3.78c-.87.741-1.331 1.17-1.522 1.992l-.627 2.72a.81.81 0 0 0 .234.774c.21.195.51.266.788.182l3.317-.998.412-.15.084.004a.726.726 0 0 0 .328-.052l3.148-1.186s.432-.15.529-.179c.311-.07.649-.2 1.025-.346l5.611-2.013c.857.023 1.425.042 1.804.02l-.003.016 4.608.36a.55.55 0 0 0 .179-.007l1.905.097 3.008 2.564c.243.204.587.25.876.11l.49-.233 1.279.032.373-.036 3.31.192 1.749 1.008.578.272a.678.678 0 0 0 .198.055l1.064.519-4.024.21a.77.77 0 0 0-.396-.061l-3.884.37-.185-.16a.825.825 0 0 0-.938-.09l-5.17 3.001-1.411-.126-3.729.068-.912-.052-.76-.441a.816.816 0 0 0-.91.062l-5.245 4.122-1.032-.427a.867.867 0 0 0-.425-.026l-.218-.065a.754.754 0 0 0-.431-.01l-.6.152c-1.02.26-1.756.444-2.301.603l-1.58-.26-.85-.667a.809.809 0 0 0-1.085.072l-.87.927-1.207.761L2.8 33.755a.782.782 0 0 0-.322.555l-.045.528-.756 2.204-1.51 9.827L0 53.71l.295 1.905c.1 1.011.555 1.598.877 1.87l.408.405c.153.15.357.237.568.237l1.36.003c.21-.094.435-.087.587-.246l7.883-8.145 1.69-.681 2.415-.123a.822.822 0 0 0 .571-.276l1.288-1.474 3.46-.383.87.327a.8.8 0 0 0 .927-.269l.656-.855 2.547-1.8 2.7.037 3.142.301a.832.832 0 0 0 .236-.013l2.165-.431a.835.835 0 0 0 .422-.23l2.369-2.415a.806.806 0 0 0 .097-.08l2.028-1.93 1.779-.226 1.226.573 1.084.35c.273.088.568.03.785-.162l.254-.223 1.307-.234 1.86 1.436a.82.82 0 0 0 1.106-.103l.348-.393 2.141-.058.536-.136 1.444.068.253.094a.798.798 0 0 0 .568-.007l1.639-.625a.781.781 0 0 0 .295-.065l5.844-2.476 1.974.894-.228.091a.828.828 0 0 0-.473.214l-1.373 1.277-2.95.389a.815.815 0 0 0-.39.162l-2.793 2.152a.79.79 0 0 0-.35.107l-1.623.953-.643.075a.824.824 0 0 0-.432.188l-.133.113-3.3-.224a.814.814 0 0 0-.665.276l-6.821 7.772-2.911.529-1.117.035a.811.811 0 0 0-.704.45l-.162.325-3.404 1.886-1.723-.2a.71.71 0 0 0-.36.038l-.348.12-2.404-.146a.779.779 0 0 0-.646.256l-2.113 2.289-.074.02-.883-.04c-.104.016-.24.02-.35.065l-.516.217-2.181-.159a.783.783 0 0 0-.688.295.821.821 0 0 0-.156.73l.201.722-5.763 4.353-.743.785a.814.814 0 0 0-.205.7l.046.262-1.808 4.38-3.008.271a.81.81 0 0 0-.454.195L7.229 71.9a.798.798 0 0 0-.246.38l-.497 1.659a.808.808 0 0 0 .114.696l3.76 5.4 1.312 1.673 1.619 1.753a2.445 2.445 0 0 0 1.519 1.19c.058.02.12.026.181.029l1.045.343c.036.01.072.02.104.026l.11.04c.098.35.42.592.783.592h1.025l1.775.678 1.577.9c.247.14.546.143.795.007l1.22-.67a.801.801 0 0 0 .345-.124l.029-.02 3.147.795a.8.8 0 0 0 .568-.062l2.762-1.41 6.16-.609a.813.813 0 0 0 .61-.38l2.65-4.268.896-.82.902-.84 1.918-1.928c.37-.243.701-.596 1.295-1.231l1.26-.325a.812.812 0 0 0 .635-1.014l-.464-1.656.15-.545 1.609-.593a.81.81 0 0 0 .529-.73l.023-.599 2.025-3.264.198-.11a.836.836 0 0 0 .334-.113l6.357-3.102 1.22-.35a.812.812 0 0 0 .549-.532l.473-1.465 1.694-.314a.797.797 0 0 0 .315-.133l1.074-.746.47.023.903.626a.82.82 0 0 0 .425.146l-1.305.855a.818.818 0 0 0-.512.188l-1.616 1.345a.813.813 0 0 0-.27.425l-.444 1.773-.266.256a.796.796 0 0 0-.221.373l-1.892 6.984-.649.311h-1.175a.81.81 0 0 0-.785.603l-1.506 5.676-.12.606a.945.945 0 0 0 .013.31l-.12.818-.311.544a.694.694 0 0 0-.082.315l-2.764 4.152-1.769 2.628a78.11 78.11 0 0 0-1.963 1.167l-1.324 1.06a.807.807 0 0 0-.172 1.076l.042.065-3.193 1.886a.854.854 0 0 0-.273.266l-.746 1.186a.803.803 0 0 0-.124.431v.467c0 2.217 2.136 2.45 3.216 2.564l5.744.253 4.654-.467 2.265-.409 3.446-.985 2.22-.885.899-.499c.084-.045.48-.256.967-.535l.295.422a.794.794 0 0 0 .691.347l.902-.03a8.239 8.239 0 0 0 1.224-.165l2.365-.91c2.08-.99 3.005-1.433 3.457-1.663a.932.932 0 0 0 .214-.104l8.476-5.685 4.728-4.548 1.671-1.931 4.015-5.49 4.374-8.742 1.918-6.58c.178-.6.172-1.118.068-1.565a.805.805 0 0 0 .432-.636l.785-7.837.006-2.92-.35-3.792z" fill="#FEFEFE" mask="url(#b)"/></g><path d="M90.99 118.902c.075.09.124.207.176.2.246-.006.736-.087.736-.087l.49-.21 1.386-.542s3.463-1.646 3.472-1.656c.017-.013.607-.324.607-.324l.318-.14.373-.256.614-.376.73-.398.94-.613 1.636-1.154.796-.629 1.148-.83 1.045-.774.497-.363.688-.642.72-.713 1.155-1.238 1.347-1.293 1.558-1.79.85-1.137.302-.412.915-1.127 1.781-2.561.507-.84 1.194-2.359.685-1.284 1.152-2.343.626-1.423.678-2.181s.802-2.885 1.233-4.392c.052-.172.068-.327-.039-.48-.246-.346-.428-.79-.662-1.18-.12-.2-.292-.408-.405-.573a10.182 10.182 0 0 0-.536-.69 2.743 2.743 0 0 0-.431-.393c-.374-.346-.701-.693-1.013-.92a3.172 3.172 0 0 1-.422-.295 13.99 13.99 0 0 0-3.063-1.825 21.8 21.8 0 0 0-1.425-.538 9.202 9.202 0 0 0-1.23-.301c-.204-.04-.366-.04-.525.058-.153.107-.156.34-.182.57-.065.597-.088 1.258-.136 1.864-.059.626-.1 1.245-.15 1.873-.048.564-.077 1.132-.146 1.692a32.433 32.433 0 0 1-.334 2.22c-.26 1.378-.555 2.75-.844 4.117-.08.38-.133.768-.282 1.125a8.51 8.51 0 0 0-.548 1.795c-.253 1.306-.73 2.535-1.175 3.766-.364 1.005-.724 2.03-1.295 2.943-.042.062-.065.14-.087.198-.273.635-.526 1.277-.815 1.903-.182.408-.448.78-.617 1.19-.22.515-.512.988-.808 1.451-.483.746-.986 1.472-1.405 2.246-.289.551-.62 1.06-.98 1.56-.097.13-.175.259-.266.388-.285.425-.548.86-.87 1.255a68.627 68.627 0 0 1-1.869 2.269c-.392.466-.834.894-1.256 1.341-.386.402-.762.808-1.148 1.21-.082.09-.185.155-.276.236-.227.188-.477.373-.685.583-.5.5-1.012.976-1.6 1.368-.25.169-.503.334-.733.529-.62.531-1.318.93-2.097 1.332m30.93-36.992c.025 0 .035-.042.035-.097.016-.117.039-.33.039-.33l.334-3.005.201-2.814.013-2.803-.006-.428-.331-3.173s-.39-2.853-.685-4.324c-.107-.515-.428-.781-.853-.989-.143-.068-.296-.142-.451-.188-.305-.097-.653-.252-.964-.327-.717-.185-1.396-.418-2.122-.538a34.554 34.554 0 0 0-2.587-.318 31.273 31.273 0 0 0-2.138-.1c-.568-.007-.909-.016-1.48-.016-.305 0-.626.013-.77.197-.132.192-.035.525.017.869.104.69.224 1.037.338 1.724.347 2.036.71 4.065.782 6.14.039.926.094 1.853.136 2.783.006.263.006.435.01.7a.923.923 0 0 0 .116.454c.082.127.211.146.36.195.182.055.351.07.526.11.179.048.51.113.737.188.824.266 1.7.557 2.505.881.565.23 1.094.555 1.639.846a.87.87 0 0 1 .182.117c.321.233.642.473.957.707.746.55 1.519 1.082 2.093 1.834.107.146.24.279.377.399.22.2.597.91.873 1.235.048.055.094.071.116.071m-21.227-33.794c.285-.016.542-.023.76-.049.165-.016.314-.022.385-.194.072-.169-.055-.347-.097-.425-.062-.139-.604-1.102-.604-1.102l-.529-.823-2.232-3.215-.464-.548-.429-.583-.736-.807-1.805-1.98-.778-.762-2.801-2.587-2.291-1.77-.83-.44-2.7-1.637-1.883-1.021-.363-.152-1.539-.558-2.278-.856-.175-.042-.736-.178-.195-.036-.64-.165-1.356-.246-.649-.02-1.204-.227-1.45-.097-.507-.055-.912-.016-1.512.039-1.506.171-1.158.026-1.026.114-1.054.21-.798.247-1.295.25-.292-.007-1.208.434-.717.195-.438.266-1.058.288-.506.295-.636.246-1.567.652-1.99.774-.655.315-1.392.752-1.214.79-1.133.59-.408.234-1.237.655-.204.13-1.405 1.108-1.169.78-.227.156-1.324 1.04-.477.403s-.71.61-.73.69l.5-.149s.912-.337.925-.327c.016.006.175.016.175.016l1.308-.535h.191l1.434-.56s.75-.253.75-.234c0 .02.763-.279.763-.279l1.064-.379 2.577-.985.237-.013 1.32-.46 1.045-.428.15.107 2.028.048 1.282.1.042.02 2.6.21.028-.022 3.593.185.02.09 1.274 1.09.098-.004 1.298 1.258.117-.058 1.788.048.087-.061 4.495.262.026.1 1.999 1.158.087-.013 3.531 1.718.026.188 2.006-.778 2.936.988.497.807 1.08.075 1.036 1.17.104.006.837.95.013.062h.117l2.317.525.853 1.319 2.145.775s2.3.59 3.472.735c1.049.137 2.288.078 3.103.023m19.991 13.582c-.068-.34-.312-1.028-.312-1.028l-.133-.37-.12-.456-.376-1.132-.354-.985-1.1-2.447-.503-1.209-.627-1.39-.752-1.232-.176-.357-.503-1.004-.464-.759-.198-.266-3.21-4.34s-.307-.366-.466-.547c-.072-.097-.098-.172-.198-.172-.01 0-.017.01-.026.01 0 0-.987 1.607-1.399 2.068-.409.45-1.236 1.212-1.236 1.212s-.695.567-.815.658c-.12.087-.649.44-.649.44l-.733.419s-.552.256-.643.291c-.087.036-.195.075-.256.146-.052.072-.068.13-.046.25.02.097.046.194.091.282.296.619.568 1.254.89 1.854.496.9.798 1.863 1.203 2.8.137.308.27.622.377.937.27.83.529 1.666.795 2.49.11.365.23.735.34 1.108.108.366.192.735.296 1.111.062.253.227.36.474.357.24 0 .483-.01.727-.02.856-.029 1.713-.052 2.58-.068.246-.006 1.96.153 1.96.153s.616.064.915.113c.649.12 1.3.266 1.953.402.545.113 1.11.301 1.616.535.25.113.52.181.792.262.084.023.218.046.24.033.023-.01.052-.104.046-.15" fill="#221F20"/><path d="M109.453 42.55c-.026-.12-.253-.466-.253-.466l-.166-.292-.464-.535-.315-.45-.584-.577s-.13-.11-.188-.166c-1.025-.83-3.073-2.482-3.08-2.489 0-.003-.564-.444-.564-.444l-1.061-.93-5.319-3.193-4.196-1.983s-2.226-.872-2.226-.866c0 0-.811-.285-.821-.285-.013.006-2.739-.94-2.739-.94l-1.934-.49-1.879-.401-.292-.03-.166.166.072.08s.191.098.282.13c.578.234 1.168.445 1.752.678.38.152.74.356 1.133.47.27.081.52.175.76.318.895.515 1.778 1.03 2.664 1.555a8.586 8.586 0 0 1 1.473 1.115c.347.315.704.616 1.12.85.188.093.34.265.506.401.087.078.181.156.276.234.516.43 1.087.797 1.547 1.296a34.43 34.43 0 0 0 1.539 1.54c.49.486.99.956 1.408 1.504.347.45.707.894 1.11 1.3.769.761 1.36 1.665 2.06 2.479.088.097.14.23.211.34.455.713.86 1.456 1.402 2.107.383.454.73.94.98 1.481.156.328.383.623.584.918.117.175.315.256.426.252.1-.01.298-.097.298-.097l.377-.152.668-.295c.16-.081.497-.263.613-.373.12-.107.617-.454.906-.71.276-.259.847-.923.847-.923l.412-.551.704-1.18s.143-.266.117-.396m-2.218 17.689c-.285-.885-.506-1.721-.824-2.593-.263-.716-.458-1.449-.795-2.136-.195-.412-.305-.862-.46-1.293-.082-.22-.19-.422-.264-.639-.39-1.115-.918-2.016-1.454-3.063-.022-.061-.052-.104-.103-.2-.052-.098-.095-.189-.224-.26-.133-.075-.247-.026-.484.003-.454.055-1.032.11-1.265.11-.211 0-1.11.072-1.824.13l-.166-.049h-.866l-2.294-.298c-.838-.123-2.765-.603-2.765-.603l-1.405-.486-1.733-.59-.13.072-2.71-.211-.084.049-1.519-1.158-.178-.01-.945-.852-.039-.178-1.054-.159-.098.046-.866-.299-.097-.09-1.99.145-1.798-.729-6.24.328-.1-.065-1.178.09-.124.091-3.073.23-.084-.074-4.381 2.525-.052.188-.198.181-.104-.074-2.2-.205-.12.052-3.894.023-.078-.039-1.117-.036-.337-.197-4.082 3.15-.013.081-1.435 1.131-1.596-.761-.098.045-.587-.175s-2.947.746-2.917.768c.032.016-2.746-.44-2.746-.44l-.194-.153-.523.532-1.097.525-.026.094-2.197 1.679-3.115 2.24-3.505 2.602-1.58 1.15-.081.675-.662 1.533-.286 1.326-.444 2.673-.26 1.158-.094 1.387-.383 2.884-.166 6.327.172.38.11 1.737s.03.301.098.314c.01.01.01 0 .01.01l7.762-8.022 2.548-1.028 2.138-.11 1.295-1.48.123-.276.16.074 3.494-.392.146-.11h1.308l.195.071.422-.551 1.564-.966 1.674-1.147 4.709.065.03.097 1.846.175 1.437-.289 2.639-2.69.055.003 2.093-1.99 3.148-.405.123-.084.14.136 1.635.771.117-.103 1.447-.179.075-.077 1.36-.23.12-.075 1.48 1.26.084-.096 3.027-.055.263-.188 2.437.116.133.049.377-.094.065-.107.97-.438.114.01 1.122-.502.094-.104 1.198-.454.088-.136 3.326-1.27.023-.05.587-.184.13-.13.165.185.964.47.299.007 1.074.603.078-.1.33-.157.033.01.542-.25.023-.035.778-.182 1.986.516.42-.097.363.243 1.46.22 1.431.548.83-.055c.014 0 .27.175.27.175l.208-.12s2.813-.353 4.222-.47c.915-.068 1.827-.165 2.745-.256.513-.052 1.032-.097 1.551-.156.28-.032.422-.146.318-.463" fill="#221F20"/><path d="M109.29 74.638c0-.194-.036-.314-.049-.508-.029-.542-.055-1.083-.084-1.624-.01-.182-.032-.363-.045-.545-.043-.674-.062-1.345-.124-2.022-.09-.86-.21-1.699-.34-2.548-.098-.655-.228-1.316-.341-1.96-.13-.685-.237-1.31-.386-1.994-.146-.69-.296-.788-1.01-.697a3.83 3.83 0 0 0-.175.026c-.263.055-.63.094-.892.126-1.383.179-2.68.25-4.06.415l-3.959 1.38-5.718-.155-.623-.2-.003.1-1.684 1.241-.237.023-1.33 1.235-.075.178-3.427.454-3.125 2.408-.325-.01-1.665.976-.658.078-.653.554-.168-.136-3.19-.217-.552.619.013.107-2.758 3.001-.03.172-.107.026-3.514 3.996-.964.016-.078.098-2.881.502-.224-.013s-.062.133-.072.143c-.02.006-4.75 2.631-4.75 2.631l-2.133-.25-.454.16-2.126-.13-2.102 2.275-1.26.253-.713-.032-.747.314-.444-.048.026.094-2.622 2.022-.247.049-4.092 3.18.032.184-2.524 6.116.1.26-4.173.379-1.37 1.18-.133.44 1.863 2.577 1.373 2.097 1.181 1.514 1.928 2.087s.01.146.052.159c.035.016.256.029.262.035.01.01 1.156.39 1.165.396.004.01 1.419.444 1.419.444s.016.071.032.071c.01 0 .143-.02.143-.02l2.356.912.178-.007.13.152h.211c.016.007.558.373.558.373l.987-.544.048.006.442-.282 3.576.901 2.628-1.342 5.822-.573 2.385-3.841a99.865 99.865 0 0 0 1.061-1.07l.091-.003s.821-.758.837-.775c.01-.016 0-.1 0-.1l1.503-1.371.7-.726s.157-.094.176-.097c.023 0 .805-.837.805-.837l.652-.67.169-.03-.166-.596.679-2.463 1.304-.39.049-.048.386-.087.01-.218 1.752-2.836.16-.074.72-1.397 1.19-.674.156-.195.237.036s.695-.412.714-.402h.081l1.289-.567.107-.153 4.277-1.964.256-.022.052-.234.166-.126.44-1.491 1.35-.58 1.568-.195 1.418-.985 2.032.087.198.169.104-.13 2.83-1.264-.017-.363.682-1.296 1.388-.37.069-.09 1.905-.4.73-.865.094-.019.45-.438c.017 0 1.312.179 1.312.179l.068.048.714.1.441.056s1.925-.904 2.733-1.216c.34-.126.671-.213.986-.324.445-.162.89-.314 1.337-.466.23-.072.442-.127.665-.198l.9-.165 1.041-.172.636-.04s.308-.038.425-.054c.114-.026.292-.026.429-.143.136-.126.133-.253.149-.366.01-.12.016-.182.016-.357" fill="#221F20"/><path d="M109.243 78.38c.006-.15.032-.4-.094-.535a.516.516 0 0 0-.38-.153c-.104 0-.594.065-.594.065l-.83.13c-.095.013-.186.022-.277.052-.496.116-.993.22-1.483.356-.542.156-1.1.302-1.612.528-.549.243-1.162.438-1.707.694-.195.094-2.035.992-2.872 1.407l-1.074 1.14-.04.25-.142-.065-.669.04-.039.058-2.177.72.02.242-.228.22-.003.14-1.022 1.796-.143.006-.02.188s-.21.337-.44.72l-4.602 2.956-.098-.01-.7.583-.487 1.939-.445.427-1.798 6.632.24.752-2.66 1.274h-.429l-.513 2.314-.08.071-.656 2.104.035.11-.27 1.805-.1.127.094.168-2.56 4.048-.188.059-.626.982-.02.194s-2.177 3.076-2.177 3.07c-.007-.017-2.308 1.36-2.308 1.36l.127.192c0 .026-.123.93-.123.93l.204.344-.328.1-1.668.986-.175-.04-2.447 1.446-.289.457c0 .036.958.14.958.14l1.58.13 1.084.051 1.253.02.58.026.948.022.941-.022 3.417-.412 2.035-.356 1.538-.419 1.665-.486 2.125-.84.153-.087.597-.343s1.713-.901 2.492-1.485c1.318-1.001 2.655-1.987 3.862-3.13.412-.393.818-.788 1.227-1.187.386-.386.769-.771 1.158-1.157.062-.068.153-.133.182-.214.13-.314.376-.528.61-.759.156-.168.324-.33.451-.525.26-.411.649-.71.986-1.05.273-.269.526-.573.747-.885.402-.573.779-1.163 1.162-1.75.516-.778 1.077-1.53 1.512-2.35.47-.872.931-1.75 1.428-2.609.418-.732.847-1.471 1.171-2.246.539-1.283 1.087-2.56 1.584-3.854.526-1.38.944-2.794 1.32-4.22.286-1.063.445-2.155.838-3.19a1.94 1.94 0 0 0 .094-.417c.152-.872.302-1.737.432-2.61.133-.823.25-1.65.366-2.472.078-.561.175-1.122.22-1.69a56.36 56.36 0 0 0 .137-2.349c0-.084.01-.26.01-.26s.003-.246.01-.395" fill="#221F20"/><path d="M0 0h150v150H0z"/></g></svg>