<svg width="150" height="150" viewBox="0 0 150 150" xmlns="http://www.w3.org/2000/svg" xmlns:xlink="http://www.w3.org/1999/xlink"><title>UTA</title><defs><path id="a" d="M120.346 80.052V.086H0v79.966h120.346z"/></defs><g fill="none" fill-rule="evenodd"><g transform="translate(15 34.195)"><mask id="b" fill="#fff"><use xlink:href="#a"/></mask><path d="M43.604 43.647L62.607.085h57.739l-10.462 23.993H61.115A56437.19 56437.19 0 0 0 47.3 55.763v1.12c0 10.094-8.52 23.169-23.655 23.169C10.608 80.052 0 69.423 0 56.372c0-13.06 10.608-23.676 23.644-23.676 8.23 0 15.94 4.444 19.96 10.951" fill="#FEFEFE" mask="url(#b)"/></g><path d="M16.415 91.623c.275 5.871 2.816 11.13 6.75 14.962 4.186-3.703 6.927-9.013 7.22-14.962h-13.97z" fill="#0B223E"/><path d="M32.346 91.623c-.292 6.45-3.212 12.223-7.706 16.27a22.126 22.126 0 0 0 13.035 4.963V91.623h-5.33z" fill="#F9A11A"/><path d="M16.407 89.672H30.39a21.288 21.288 0 0 0-7.226-15.12c-3.969 3.864-6.519 9.192-6.757 15.12" fill="#0B223E"/><path d="M24.64 73.244a23.225 23.225 0 0 1 7.706 16.428h5.33v-21.4a22.091 22.091 0 0 0-13.036 4.972" fill="#F9A11A"/><path d="M60.883 91.623H46.917c.292 5.949 3.03 11.259 7.217 14.962 3.94-3.832 6.474-9.09 6.749-14.962" fill="#0B223E"/><path d="M44.96 91.623h-5.333v21.233a22.165 22.165 0 0 0 13.038-4.963c-4.494-4.047-7.416-9.82-7.706-16.27m7.706-18.379a22.115 22.115 0 0 0-13.038-4.973v21.401h5.326c.248-6.52 3.18-12.352 7.712-16.428" fill="#2B5134"/><path d="M78.527 35.69L58.755 81.037a22.431 22.431 0 0 0-4.62-6.484c-4.228 3.724-6.975 9.103-7.223 15.12H60.89l14.297-32.808h41.77l9.23-21.177h-47.66z" fill="#0B223E"/><path fill="#2B5134" d="M123.964 56.864l9.233-21.177h-3.936l-9.23 21.177z"/><path d="M0 0h150v150H0z"/></g></svg>